# xmcd
#
# Track frame offsets:
#	182
#	12625
#	26502
#	40930
#	54005
#	68200
#	80482
#	93562
#	109077
#	123245
#	136885
#	151025
#	163545
#	176152
#
# Disc length: 2529 seconds
#
# Revision: 4
# Processed by: cddbd v1.5.2PL0 Copyright (c) Steve Scherf et al.
# Submitted via: EasyCDDAExtractor 2010.6.0.0
#
DISCID=ac09df0e
DTITLE=Various Artist - Guitar Wizards 1926-1935
DYEAR=1991
DGENRE=Blues
TTITLE0=Blind Blake - You Gonna Quit Me Blues (1927)
TTITLE1=Carl Martin - Farewell to You, Baby (1935)
TTITLE2=Tampa Red - Boogie Woogie Dance (1931)
TTITLE3=Various Artist - Panther Squall Blues (1928)
TTITLE4=Carl Martin - Badly Mistreated Man (1935)
TTITLE5=Sam Butler - Jefferson County Blues (1926)
TTITLE6=Blind Blake - Wabash Rag (1927)
TTITLE7=Tampa Red - Bumble Bee Blues (1931)
TTITLE8=William Moore - Ragtime Millionaire (1928)
TTITLE9=Blind Blake - Guitar Chimes (1929)
TTITLE10=Sam Butler - Some Scream High Yellow (1926)
TTITLE11=Carl Martin - Joe Louis Blues (1935)
TTITLE12=Sam Butler - Poor Boy Blues (1926)
TTITLE13=Billy Bird - Mill Man Blues (1928) - Billy Bird
EXTD=YEAR: 1991
EXTT0=Blind Blake\n
EXTT1=Carl Martin\n
EXTT2=Tampa Red\n
EXTT3=Blind Blake\n
EXTT4=Carl Martin\n
EXTT5=Sam Butler\n
EXTT6=Blind Blake\n
EXTT7=Tampa Red\n
EXTT8=William Moore\n
EXTT9=Blind Blake\n
EXTT10=Sam Butler\n
EXTT11=Carl Martin\n
EXTT12=Sam Butler\n
EXTT13=Billy Bird\n
PLAYORDER=
